<svg width="29" height="29" viewBox="0 0 29 29" fill="none" xmlns="http://www.w3.org/2000/svg">
<path d="M12.216 13.4728H9.01389C8.25264 13.4728 7.63641 14.089 7.63641 14.8502V21.0369H12.216V13.4728V13.4728Z" stroke="#292D32" stroke-width="1.5" stroke-miterlimit="10" stroke-linecap="round" stroke-linejoin="round"/>
<path d="M15.4196 7.97482H13.5829C12.8217 7.97482 12.2054 8.59109 12.2054 9.35234V21.0249H16.785V9.35234C16.785 8.59109 16.1809 7.97482 15.4196 7.97482Z" stroke="#292D32" stroke-width="1.5" stroke-miterlimit="10" stroke-linecap="round" stroke-linejoin="round"/>
<path d="M19.9954 15.5269H16.7933V21.0249H21.3729V16.9044C21.3608 16.1432 20.7446 15.5269 19.9954 15.5269Z" stroke="#292D32" stroke-width="1.5" stroke-miterlimit="10" stroke-linecap="round" stroke-linejoin="round"/>
<path d="M10.8747 26.5832H18.1247C24.1664 26.5832 26.5831 24.1665 26.5831 18.1249V10.8749C26.5831 4.83319 24.1664 2.41652 18.1247 2.41652H10.8747C4.83308 2.41652 2.41641 4.83319 2.41641 10.8749V18.1249C2.41641 24.1665 4.83308 26.5832 10.8747 26.5832Z" stroke="#292D32" stroke-width="1.5" stroke-linecap="round" stroke-linejoin="round"/>
</svg>
