<svg width="64" height="23" viewBox="0 0 64 23" fill="none" xmlns="http://www.w3.org/2000/svg">
<rect width="64" height="23" rx="11.5" fill="#23C10A" fill-opacity="0.15"/>
<path d="M9.83334 10.5748L12.1667 12.9082L15.4958 9.57908L16.8333 10.9167V7.41667H13.3333L14.6709 8.75425L12.1667 11.2585L9.83334 8.92517L5.33759 13.4209L6.16242 14.2458L9.83334 10.5748Z" fill="#0B8A00"/>
<path d="M27.664 14.768V16H21.56V14.712L24.038 12.206C24.8687 11.3567 25.4427 10.722 25.76 10.302C26.0773 9.87267 26.236 9.42467 26.236 8.958C26.236 8.538 26.0727 8.17867 25.746 7.88C25.4193 7.58133 24.9993 7.432 24.486 7.432C24.0473 7.432 23.6693 7.56267 23.352 7.824C23.0347 8.08533 22.8293 8.40267 22.736 8.776L21.56 8.3C21.7467 7.712 22.106 7.21733 22.638 6.816C23.17 6.40533 23.7953 6.2 24.514 6.2C25.382 6.2 26.1053 6.466 26.684 6.998C27.2627 7.53 27.552 8.18333 27.552 8.958C27.552 9.882 27.0433 10.8807 26.026 11.954L23.226 14.768H27.664ZM35.0774 14.768V16H28.9734V14.712L31.4514 12.206C32.2821 11.3567 32.8561 10.722 33.1734 10.302C33.4908 9.87267 33.6494 9.42467 33.6494 8.958C33.6494 8.538 33.4861 8.17867 33.1594 7.88C32.8328 7.58133 32.4128 7.432 31.8994 7.432C31.4608 7.432 31.0828 7.56267 30.7654 7.824C30.4481 8.08533 30.2428 8.40267 30.1494 8.776L28.9734 8.3C29.1601 7.712 29.5194 7.21733 30.0514 6.816C30.5834 6.40533 31.2088 6.2 31.9274 6.2C32.7954 6.2 33.5188 6.466 34.0974 6.998C34.6761 7.53 34.9654 8.18333 34.9654 8.958C34.9654 9.882 34.4568 10.8807 33.4394 11.954L30.6394 14.768H35.0774ZM38.4029 15.132C38.4029 15.3933 38.3095 15.6173 38.1229 15.804C37.9455 15.9907 37.7215 16.084 37.4509 16.084C37.1895 16.084 36.9655 15.9907 36.7789 15.804C36.5922 15.6173 36.4989 15.3933 36.4989 15.132C36.4989 14.8613 36.5922 14.6373 36.7789 14.46C36.9655 14.2733 37.1895 14.18 37.4509 14.18C37.7215 14.18 37.9455 14.2733 38.1229 14.46C38.3095 14.6373 38.4029 14.8613 38.4029 15.132ZM39.8368 11.212C39.8368 9.756 40.1961 8.55667 40.9148 7.614C41.6334 6.67133 42.5574 6.2 43.6868 6.2C44.8161 6.2 45.7401 6.676 46.4588 7.628C47.1774 8.57067 47.5368 9.76533 47.5368 11.212C47.5368 12.6493 47.1774 13.8487 46.4588 14.81C45.7401 15.7527 44.8161 16.224 43.6868 16.224C42.5574 16.224 41.6334 15.7527 40.9148 14.81C40.1961 13.8487 39.8368 12.6493 39.8368 11.212ZM46.2208 11.212C46.2208 10.1107 45.9874 9.20533 45.5208 8.496C45.0634 7.78667 44.4521 7.432 43.6868 7.432C42.9214 7.432 42.3101 7.78667 41.8528 8.496C41.3861 9.20533 41.1528 10.1107 41.1528 11.212C41.1528 12.3133 41.3861 13.2233 41.8528 13.942C42.3101 14.642 42.9214 14.992 43.6868 14.992C44.4521 14.992 45.0634 14.6373 45.5208 13.928C45.9874 13.2093 46.2208 12.304 46.2208 11.212ZM53.5245 8.594C53.5245 9.24733 53.2865 9.812 52.8105 10.288C52.3438 10.7547 51.7838 10.988 51.1305 10.988C50.4865 10.988 49.9218 10.7547 49.4365 10.288C48.9698 9.80267 48.7365 9.238 48.7365 8.594C48.7365 7.94067 48.9698 7.38067 49.4365 6.914C49.9125 6.438 50.4772 6.2 51.1305 6.2C51.7838 6.2 52.3438 6.438 52.8105 6.914C53.2865 7.38067 53.5245 7.94067 53.5245 8.594ZM57.4865 6.844L51.2705 16.112L50.4725 15.594L56.7025 6.312L57.4865 6.844ZM52.4885 8.594C52.4885 8.174 52.3578 7.82867 52.0965 7.558C51.8445 7.278 51.5225 7.138 51.1305 7.138C50.7478 7.138 50.4258 7.278 50.1645 7.558C49.9032 7.82867 49.7725 8.174 49.7725 8.594C49.7725 9.014 49.9032 9.35933 50.1645 9.63C50.4258 9.91 50.7478 10.05 51.1305 10.05C51.5225 10.05 51.8445 9.91467 52.0965 9.644C52.3578 9.364 52.4885 9.014 52.4885 8.594ZM59.2365 13.83C59.2365 14.4833 58.9985 15.048 58.5225 15.524C58.0558 15.9907 57.4958 16.224 56.8425 16.224C56.1985 16.224 55.6338 15.9907 55.1485 15.524C54.6818 15.0387 54.4485 14.474 54.4485 13.83C54.4485 13.1767 54.6818 12.6167 55.1485 12.15C55.6245 11.674 56.1892 11.436 56.8425 11.436C57.4958 11.436 58.0558 11.674 58.5225 12.15C58.9985 12.6167 59.2365 13.1767 59.2365 13.83ZM58.2005 13.83C58.2005 13.41 58.0698 13.0647 57.8085 12.794C57.5565 12.514 57.2345 12.374 56.8425 12.374C56.4598 12.374 56.1378 12.514 55.8765 12.794C55.6152 13.0647 55.4845 13.41 55.4845 13.83C55.4845 14.25 55.6152 14.5953 55.8765 14.866C56.1378 15.146 56.4598 15.286 56.8425 15.286C57.2345 15.286 57.5565 15.1507 57.8085 14.88C58.0698 14.6 58.2005 14.25 58.2005 13.83Z" fill="#0B8A00"/>
</svg>
