<svg width="55" height="23" viewBox="0 0 55 23" fill="none" xmlns="http://www.w3.org/2000/svg">
<rect width="55" height="23" rx="11.5" fill="#C10A0A" fill-opacity="0.15"/>
<path d="M9.83327 12.4252L12.1666 10.0918L15.4957 13.4209L16.8333 12.0833V15.5833H13.3333L14.6709 14.2458L12.1666 11.7415L9.83327 14.0748L5.33752 9.57909L6.16236 8.75425L9.83327 12.4252Z" fill="#C71026"/>
<path d="M27.762 7.74L23.114 16.224L21.966 15.636L26.404 7.656H21.56L21.588 6.424H27.762V7.74ZM29.4992 15.132C29.4992 15.3933 29.4059 15.6173 29.2192 15.804C29.0419 15.9907 28.8179 16.084 28.5472 16.084C28.2859 16.084 28.0619 15.9907 27.8752 15.804C27.6885 15.6173 27.5952 15.3933 27.5952 15.132C27.5952 14.8613 27.6885 14.6373 27.8752 14.46C28.0619 14.2733 28.2859 14.18 28.5472 14.18C28.8179 14.18 29.0419 14.2733 29.2192 14.46C29.4059 14.6373 29.4992 14.8613 29.4992 15.132ZM30.9331 11.212C30.9331 9.756 31.2924 8.55667 32.0111 7.614C32.7298 6.67133 33.6538 6.2 34.7831 6.2C35.9124 6.2 36.8364 6.676 37.5551 7.628C38.2738 8.57067 38.6331 9.76533 38.6331 11.212C38.6331 12.6493 38.2738 13.8487 37.5551 14.81C36.8364 15.7527 35.9124 16.224 34.7831 16.224C33.6538 16.224 32.7298 15.7527 32.0111 14.81C31.2924 13.8487 30.9331 12.6493 30.9331 11.212ZM37.3171 11.212C37.3171 10.1107 37.0838 9.20533 36.6171 8.496C36.1598 7.78667 35.5484 7.432 34.7831 7.432C34.0178 7.432 33.4064 7.78667 32.9491 8.496C32.4824 9.20533 32.2491 10.1107 32.2491 11.212C32.2491 12.3133 32.4824 13.2233 32.9491 13.942C33.4064 14.642 34.0178 14.992 34.7831 14.992C35.5484 14.992 36.1598 14.6373 36.6171 13.928C37.0838 13.2093 37.3171 12.304 37.3171 11.212ZM44.6208 8.594C44.6208 9.24733 44.3828 9.812 43.9068 10.288C43.4402 10.7547 42.8802 10.988 42.2268 10.988C41.5828 10.988 41.0182 10.7547 40.5328 10.288C40.0662 9.80267 39.8328 9.238 39.8328 8.594C39.8328 7.94067 40.0662 7.38067 40.5328 6.914C41.0088 6.438 41.5735 6.2 42.2268 6.2C42.8802 6.2 43.4402 6.438 43.9068 6.914C44.3828 7.38067 44.6208 7.94067 44.6208 8.594ZM48.5828 6.844L42.3668 16.112L41.5688 15.594L47.7988 6.312L48.5828 6.844ZM43.5848 8.594C43.5848 8.174 43.4542 7.82867 43.1928 7.558C42.9408 7.278 42.6188 7.138 42.2268 7.138C41.8442 7.138 41.5222 7.278 41.2608 7.558C40.9995 7.82867 40.8688 8.174 40.8688 8.594C40.8688 9.014 40.9995 9.35933 41.2608 9.63C41.5222 9.91 41.8442 10.05 42.2268 10.05C42.6188 10.05 42.9408 9.91467 43.1928 9.644C43.4542 9.364 43.5848 9.014 43.5848 8.594ZM50.3328 13.83C50.3328 14.4833 50.0948 15.048 49.6188 15.524C49.1522 15.9907 48.5922 16.224 47.9388 16.224C47.2948 16.224 46.7302 15.9907 46.2448 15.524C45.7782 15.0387 45.5448 14.474 45.5448 13.83C45.5448 13.1767 45.7782 12.6167 46.2448 12.15C46.7208 11.674 47.2855 11.436 47.9388 11.436C48.5922 11.436 49.1522 11.674 49.6188 12.15C50.0948 12.6167 50.3328 13.1767 50.3328 13.83ZM49.2968 13.83C49.2968 13.41 49.1662 13.0647 48.9048 12.794C48.6528 12.514 48.3308 12.374 47.9388 12.374C47.5562 12.374 47.2342 12.514 46.9728 12.794C46.7115 13.0647 46.5808 13.41 46.5808 13.83C46.5808 14.25 46.7115 14.5953 46.9728 14.866C47.2342 15.146 47.5562 15.286 47.9388 15.286C48.3308 15.286 48.6528 15.1507 48.9048 14.88C49.1662 14.6 49.2968 14.25 49.2968 13.83Z" fill="#C71026"/>
</svg>
