<svg width="45" height="45" viewBox="0 0 45 45" fill="none" xmlns="http://www.w3.org/2000/svg">
<rect width="45" height="45" rx="15" fill="#EBEBEB" fill-opacity="0.4"/>
<path d="M20.1827 11.5599C20.3695 11.0983 20.6898 10.703 21.1027 10.4246C21.5156 10.1463 22.0022 9.99756 22.5002 9.99756C22.9981 9.99756 23.4848 10.1463 23.8977 10.4246C24.3106 10.703 24.6309 11.0983 24.8177 11.5599C26.6661 12.0683 28.2966 13.1694 29.4586 14.6941C30.6207 16.2188 31.2501 18.0828 31.2502 19.9999V25.8712L33.5402 29.3062C33.6658 29.4944 33.7379 29.7132 33.7489 29.9393C33.7599 30.1653 33.7093 30.3901 33.6025 30.5896C33.4958 30.7891 33.3368 30.956 33.1427 31.0722C32.9486 31.1885 32.7265 31.2499 32.5002 31.2499H26.8314C26.6809 32.2913 26.1603 33.2436 25.3648 33.9323C24.5694 34.6211 23.5524 35.0002 22.5002 35.0002C21.448 35.0002 20.431 34.6211 19.6356 33.9323C18.8401 33.2436 18.3194 32.2913 18.1689 31.2499H12.5002C12.2739 31.2499 12.0518 31.1885 11.8577 31.0722C11.6635 30.956 11.5046 30.7891 11.3978 30.5896C11.2911 30.3901 11.2405 30.1653 11.2515 29.9393C11.2625 29.7132 11.3346 29.4944 11.4602 29.3062L13.7502 25.8712V19.9999C13.7502 15.9699 16.4752 12.5749 20.1827 11.5599ZM20.7327 31.2499C20.8618 31.6157 21.1012 31.9325 21.4178 32.1565C21.7345 32.3806 22.1129 32.5009 22.5008 32.5009C22.8887 32.5009 23.2671 32.3806 23.5838 32.1565C23.9005 31.9325 24.1398 31.6157 24.2689 31.2499H20.7314H20.7327ZM22.5002 13.7499C20.8426 13.7499 19.2529 14.4084 18.0808 15.5805C16.9087 16.7526 16.2502 18.3423 16.2502 19.9999V26.2499C16.2502 26.4968 16.1772 26.7382 16.0402 26.9437L14.8364 28.7499H30.1627L28.9589 26.9437C28.8224 26.7381 28.7498 26.4967 28.7502 26.2499V19.9999C28.7502 18.3423 28.0917 16.7526 26.9196 15.5805C25.7475 14.4084 24.1578 13.7499 22.5002 13.7499Z" fill="#898A8D"/>
<circle cx="28.75" cy="15" r="4.375" fill="#FF0000" stroke="#EBEBEB" stroke-width="1.25"/>
</svg>
