<svg width="28" height="28" viewBox="0 0 28 28" fill="none" xmlns="http://www.w3.org/2000/svg">
<path d="M14.2534 13.6591C14.2195 13.6591 14.1969 13.6591 14.163 13.6591C14.1066 13.6478 14.0275 13.6478 13.9598 13.6591C10.685 13.5574 8.21191 10.9828 8.21191 7.80958C8.21191 4.57993 10.8431 1.94879 14.0727 1.94879C17.3023 1.94879 19.9335 4.57993 19.9335 7.80958C19.9222 10.9828 17.4379 13.5574 14.2873 13.6591C14.276 13.6591 14.2647 13.6591 14.2534 13.6591ZM14.0727 3.64266C11.7803 3.64266 9.90578 5.51721 9.90578 7.80958C9.90578 10.0681 11.6674 11.8862 13.9146 11.9652C13.9711 11.9539 14.1292 11.9539 14.276 11.9652C16.4893 11.8636 18.2283 10.0455 18.2396 7.80958C18.2396 5.51721 16.3651 3.64266 14.0727 3.64266Z" fill="#7B7B7B"/>
<path d="M14.2647 26.0017C12.0514 26.0017 9.82675 25.4371 8.14417 24.3078C6.57452 23.2689 5.71629 21.8461 5.71629 20.299C5.71629 18.752 6.57452 17.3178 8.14417 16.2676C11.5319 14.0204 17.02 14.0204 20.3852 16.2676C21.9436 17.3065 22.8131 18.7294 22.8131 20.2764C22.8131 21.8235 21.9549 23.2576 20.3852 24.3078C18.6913 25.4371 16.478 26.0017 14.2647 26.0017ZM9.08145 17.6905C7.99737 18.4132 7.41016 19.3392 7.41016 20.3103C7.41016 21.2702 8.00866 22.1962 9.08145 22.9076C11.8933 24.7934 16.6361 24.7934 19.4479 22.9076C20.532 22.1849 21.1192 21.2589 21.1192 20.2877C21.1192 19.3279 20.5207 18.4019 19.4479 17.6905C16.6361 15.8159 11.8933 15.8159 9.08145 17.6905Z" fill="#7B7B7B"/>
</svg>
