<svg width="62" height="23" viewBox="0 0 62 23" fill="none" xmlns="http://www.w3.org/2000/svg">
<rect width="62" height="23" rx="11.5" fill="#23C10A" fill-opacity="0.15"/>
<path d="M9.83334 10.5748L12.1667 12.9082L15.4958 9.57908L16.8333 10.9167V7.41666H13.3333L14.6709 8.75425L12.1667 11.2585L9.83334 8.92516L5.33759 13.4209L6.16242 14.2457L9.83334 10.5748Z" fill="#0B8A00"/>
<path d="M25.2 6.424V16H23.912V8.02L22.05 8.832L21.56 7.74L24.374 6.424H25.2ZM33.3138 14.768V16H27.2098V14.712L29.6878 12.206C30.5184 11.3567 31.0924 10.722 31.4098 10.302C31.7271 9.87267 31.8858 9.42467 31.8858 8.958C31.8858 8.538 31.7224 8.17867 31.3958 7.88C31.0691 7.58133 30.6491 7.432 30.1358 7.432C29.6971 7.432 29.3191 7.56267 29.0018 7.824C28.6844 8.08533 28.4791 8.40267 28.3858 8.776L27.2098 8.3C27.3964 7.712 27.7558 7.21733 28.2878 6.816C28.8198 6.40533 29.4451 6.2 30.1638 6.2C31.0318 6.2 31.7551 6.466 32.3338 6.998C32.9124 7.53 33.2018 8.18333 33.2018 8.958C33.2018 9.882 32.6931 10.8807 31.6758 11.954L28.8758 14.768H33.3138ZM36.6392 15.132C36.6392 15.3933 36.5459 15.6173 36.3592 15.804C36.1819 15.9907 35.9579 16.084 35.6872 16.084C35.4259 16.084 35.2019 15.9907 35.0152 15.804C34.8285 15.6173 34.7352 15.3933 34.7352 15.132C34.7352 14.8613 34.8285 14.6373 35.0152 14.46C35.2019 14.2733 35.4259 14.18 35.6872 14.18C35.9579 14.18 36.1819 14.2733 36.3592 14.46C36.5459 14.6373 36.6392 14.8613 36.6392 15.132ZM38.0731 11.212C38.0731 9.756 38.4324 8.55667 39.1511 7.614C39.8698 6.67133 40.7938 6.2 41.9231 6.2C43.0524 6.2 43.9764 6.676 44.6951 7.628C45.4138 8.57067 45.7731 9.76533 45.7731 11.212C45.7731 12.6493 45.4138 13.8487 44.6951 14.81C43.9764 15.7527 43.0524 16.224 41.9231 16.224C40.7938 16.224 39.8698 15.7527 39.1511 14.81C38.4324 13.8487 38.0731 12.6493 38.0731 11.212ZM44.4571 11.212C44.4571 10.1107 44.2238 9.20533 43.7571 8.496C43.2998 7.78667 42.6884 7.432 41.9231 7.432C41.1578 7.432 40.5464 7.78667 40.0891 8.496C39.6224 9.20533 39.3891 10.1107 39.3891 11.212C39.3891 12.3133 39.6224 13.2233 40.0891 13.942C40.5464 14.642 41.1578 14.992 41.9231 14.992C42.6884 14.992 43.2998 14.6373 43.7571 13.928C44.2238 13.2093 44.4571 12.304 44.4571 11.212ZM51.7608 8.594C51.7608 9.24733 51.5228 9.812 51.0468 10.288C50.5802 10.7547 50.0202 10.988 49.3668 10.988C48.7228 10.988 48.1582 10.7547 47.6728 10.288C47.2062 9.80267 46.9728 9.238 46.9728 8.594C46.9728 7.94067 47.2062 7.38067 47.6728 6.914C48.1488 6.438 48.7135 6.2 49.3668 6.2C50.0202 6.2 50.5802 6.438 51.0468 6.914C51.5228 7.38067 51.7608 7.94067 51.7608 8.594ZM55.7228 6.844L49.5068 16.112L48.7088 15.594L54.9388 6.312L55.7228 6.844ZM50.7248 8.594C50.7248 8.174 50.5942 7.82867 50.3328 7.558C50.0808 7.278 49.7588 7.138 49.3668 7.138C48.9842 7.138 48.6622 7.278 48.4008 7.558C48.1395 7.82867 48.0088 8.174 48.0088 8.594C48.0088 9.014 48.1395 9.35933 48.4008 9.63C48.6622 9.91 48.9842 10.05 49.3668 10.05C49.7588 10.05 50.0808 9.91467 50.3328 9.644C50.5942 9.364 50.7248 9.014 50.7248 8.594ZM57.4728 13.83C57.4728 14.4833 57.2348 15.048 56.7588 15.524C56.2922 15.9907 55.7322 16.224 55.0788 16.224C54.4348 16.224 53.8702 15.9907 53.3848 15.524C52.9182 15.0387 52.6848 14.474 52.6848 13.83C52.6848 13.1767 52.9182 12.6167 53.3848 12.15C53.8608 11.674 54.4255 11.436 55.0788 11.436C55.7322 11.436 56.2922 11.674 56.7588 12.15C57.2348 12.6167 57.4728 13.1767 57.4728 13.83ZM56.4368 13.83C56.4368 13.41 56.3062 13.0647 56.0448 12.794C55.7928 12.514 55.4708 12.374 55.0788 12.374C54.6962 12.374 54.3742 12.514 54.1128 12.794C53.8515 13.0647 53.7208 13.41 53.7208 13.83C53.7208 14.25 53.8515 14.5953 54.1128 14.866C54.3742 15.146 54.6962 15.286 55.0788 15.286C55.4708 15.286 55.7928 15.1507 56.0448 14.88C56.3062 14.6 56.4368 14.25 56.4368 13.83Z" fill="#0B8A00"/>
</svg>
