<svg width="64" height="23" viewBox="0 0 64 23" fill="none" xmlns="http://www.w3.org/2000/svg">
<rect width="64" height="23" rx="11.5" fill="#23C10A" fill-opacity="0.15"/>
<path d="M9.83334 10.5748L12.1667 12.9082L15.4958 9.57908L16.8333 10.9167V7.41667H13.3333L14.6709 8.75425L12.1667 11.2585L9.83334 8.92517L5.33759 13.4209L6.16242 14.2458L9.83334 10.5748Z" fill="#0B8A00"/>
<path d="M25.2 6.424V16H23.912V8.02L22.05 8.832L21.56 7.74L24.374 6.424H25.2ZM27.129 11.212C27.129 9.756 27.4884 8.55667 28.207 7.614C28.9257 6.67133 29.8497 6.2 30.979 6.2C32.1084 6.2 33.0324 6.676 33.751 7.628C34.4697 8.57067 34.829 9.76533 34.829 11.212C34.829 12.6493 34.4697 13.8487 33.751 14.81C33.0324 15.7527 32.1084 16.224 30.979 16.224C29.8497 16.224 28.9257 15.7527 28.207 14.81C27.4884 13.8487 27.129 12.6493 27.129 11.212ZM33.513 11.212C33.513 10.1107 33.2797 9.20533 32.813 8.496C32.3557 7.78667 31.7444 7.432 30.979 7.432C30.2137 7.432 29.6024 7.78667 29.145 8.496C28.6784 9.20533 28.445 10.1107 28.445 11.212C28.445 12.3133 28.6784 13.2233 29.145 13.942C29.6024 14.642 30.2137 14.992 30.979 14.992C31.7444 14.992 32.3557 14.6373 32.813 13.928C33.2797 13.2093 33.513 12.304 33.513 11.212ZM38.1568 15.132C38.1568 15.3933 38.0634 15.6173 37.8768 15.804C37.6994 15.9907 37.4754 16.084 37.2048 16.084C36.9434 16.084 36.7194 15.9907 36.5328 15.804C36.3461 15.6173 36.2528 15.3933 36.2528 15.132C36.2528 14.8613 36.3461 14.6373 36.5328 14.46C36.7194 14.2733 36.9434 14.18 37.2048 14.18C37.4754 14.18 37.6994 14.2733 37.8768 14.46C38.0634 14.6373 38.1568 14.8613 38.1568 15.132ZM39.5907 11.212C39.5907 9.756 39.95 8.55667 40.6687 7.614C41.3874 6.67133 42.3114 6.2 43.4407 6.2C44.57 6.2 45.494 6.676 46.2127 7.628C46.9314 8.57067 47.2907 9.76533 47.2907 11.212C47.2907 12.6493 46.9314 13.8487 46.2127 14.81C45.494 15.7527 44.57 16.224 43.4407 16.224C42.3114 16.224 41.3874 15.7527 40.6687 14.81C39.95 13.8487 39.5907 12.6493 39.5907 11.212ZM45.9747 11.212C45.9747 10.1107 45.7414 9.20533 45.2747 8.496C44.8174 7.78667 44.206 7.432 43.4407 7.432C42.6754 7.432 42.064 7.78667 41.6067 8.496C41.14 9.20533 40.9067 10.1107 40.9067 11.212C40.9067 12.3133 41.14 13.2233 41.6067 13.942C42.064 14.642 42.6754 14.992 43.4407 14.992C44.206 14.992 44.8174 14.6373 45.2747 13.928C45.7414 13.2093 45.9747 12.304 45.9747 11.212ZM53.2784 8.594C53.2784 9.24733 53.0404 9.812 52.5644 10.288C52.0978 10.7547 51.5378 10.988 50.8844 10.988C50.2404 10.988 49.6758 10.7547 49.1904 10.288C48.7238 9.80267 48.4904 9.238 48.4904 8.594C48.4904 7.94067 48.7238 7.38067 49.1904 6.914C49.6664 6.438 50.2311 6.2 50.8844 6.2C51.5378 6.2 52.0978 6.438 52.5644 6.914C53.0404 7.38067 53.2784 7.94067 53.2784 8.594ZM57.2404 6.844L51.0244 16.112L50.2264 15.594L56.4564 6.312L57.2404 6.844ZM52.2424 8.594C52.2424 8.174 52.1118 7.82867 51.8504 7.558C51.5984 7.278 51.2764 7.138 50.8844 7.138C50.5018 7.138 50.1798 7.278 49.9184 7.558C49.6571 7.82867 49.5264 8.174 49.5264 8.594C49.5264 9.014 49.6571 9.35933 49.9184 9.63C50.1798 9.91 50.5018 10.05 50.8844 10.05C51.2764 10.05 51.5984 9.91467 51.8504 9.644C52.1118 9.364 52.2424 9.014 52.2424 8.594ZM58.9904 13.83C58.9904 14.4833 58.7524 15.048 58.2764 15.524C57.8098 15.9907 57.2498 16.224 56.5964 16.224C55.9524 16.224 55.3878 15.9907 54.9024 15.524C54.4358 15.0387 54.2024 14.474 54.2024 13.83C54.2024 13.1767 54.4358 12.6167 54.9024 12.15C55.3784 11.674 55.9431 11.436 56.5964 11.436C57.2498 11.436 57.8098 11.674 58.2764 12.15C58.7524 12.6167 58.9904 13.1767 58.9904 13.83ZM57.9544 13.83C57.9544 13.41 57.8238 13.0647 57.5624 12.794C57.3104 12.514 56.9884 12.374 56.5964 12.374C56.2138 12.374 55.8918 12.514 55.6304 12.794C55.3691 13.0647 55.2384 13.41 55.2384 13.83C55.2384 14.25 55.3691 14.5953 55.6304 14.866C55.8918 15.146 56.2138 15.286 56.5964 15.286C56.9884 15.286 57.3104 15.1507 57.5624 14.88C57.8238 14.6 57.9544 14.25 57.9544 13.83Z" fill="#0B8A00"/>
</svg>
