<svg width="28" height="28" viewBox="0 0 28 28" fill="none" xmlns="http://www.w3.org/2000/svg">
<path d="M14.0732 18.6285C11.7356 18.6285 9.83849 16.7314 9.83849 14.3939C9.83849 12.0563 11.7356 10.1592 14.0732 10.1592C16.4107 10.1592 18.3078 12.0563 18.3078 14.3939C18.3078 16.7314 16.4107 18.6285 14.0732 18.6285ZM14.0732 11.853C12.6729 11.853 11.5324 12.9936 11.5324 14.3939C11.5324 15.7941 12.6729 16.9347 14.0732 16.9347C15.4734 16.9347 16.614 15.7941 16.614 14.3939C16.614 12.9936 15.4734 11.853 14.0732 11.853Z" fill="#7B7B7B"/>
<path d="M17.698 25.9009C17.4609 25.9009 17.2238 25.867 16.9866 25.8105C16.2865 25.6186 15.6993 25.1782 15.3266 24.5571L15.1911 24.3312C14.5249 23.1794 13.6102 23.1794 12.9439 24.3312L12.8197 24.5458C12.447 25.1782 11.8598 25.6299 11.1597 25.8105C10.4483 26.0025 9.71427 25.9009 9.09318 25.5282L7.15088 24.4103C6.46204 24.015 5.96517 23.3714 5.75061 22.5922C5.54735 21.813 5.64898 21.0112 6.04422 20.3224C6.3717 19.7465 6.46204 19.227 6.27007 18.8996C6.07809 18.5721 5.59252 18.3801 4.92626 18.3801C3.27756 18.3801 1.93376 17.0363 1.93376 15.3876V13.4001C1.93376 11.7514 3.27756 10.4076 4.92626 10.4076C5.59252 10.4076 6.07809 10.2157 6.27007 9.88817C6.46204 9.56069 6.38299 9.04123 6.04422 8.46532C5.64898 7.77648 5.54735 6.96342 5.75061 6.19553C5.95388 5.41635 6.45075 4.77268 7.15088 4.37745L9.10447 3.25949C10.3805 2.5029 12.0631 2.94331 12.831 4.24194L12.9665 4.46779C13.6328 5.61962 14.5474 5.61962 15.2137 4.46779L15.3379 4.25323C16.1058 2.94331 17.7884 2.5029 19.0757 3.27079L21.018 4.38874C21.7069 4.78398 22.2037 5.42765 22.4183 6.20683C22.6215 6.98601 22.5199 7.78777 22.1247 8.47661C21.7972 9.05253 21.7069 9.57198 21.8988 9.89946C22.0908 10.2269 22.5764 10.4189 23.2426 10.4189C24.8913 10.4189 26.2351 11.7627 26.2351 13.4114V15.3989C26.2351 17.0476 24.8913 18.3914 23.2426 18.3914C22.5764 18.3914 22.0908 18.5834 21.8988 18.9108C21.7069 19.2383 21.7859 19.7578 22.1247 20.3337C22.5199 21.0225 22.6328 21.8356 22.4183 22.6035C22.215 23.3827 21.7182 24.0263 21.018 24.4216L19.0644 25.5395C18.6353 25.7767 18.1723 25.9009 17.698 25.9009ZM14.0732 21.7227C15.0782 21.7227 16.0155 22.355 16.6591 23.473L16.7833 23.6876C16.9189 23.9247 17.1447 24.0941 17.4157 24.1618C17.6867 24.2296 17.9578 24.1957 18.1836 24.0602L20.1372 22.931C20.4308 22.7616 20.6567 22.4793 20.747 22.1405C20.8373 21.8017 20.7922 21.4516 20.6228 21.158C19.9791 20.0514 19.9001 18.9108 20.3969 18.0413C20.8938 17.1718 21.9214 16.6749 23.2088 16.6749C23.9315 16.6749 24.5074 16.099 24.5074 15.3763V13.3888C24.5074 12.6774 23.9315 12.0902 23.2088 12.0902C21.9214 12.0902 20.8938 11.5933 20.3969 10.7238C19.9001 9.85429 19.9791 8.71375 20.6228 7.60709C20.7922 7.31349 20.8373 6.96342 20.747 6.62465C20.6567 6.28587 20.4421 6.01485 20.1485 5.83418L18.1949 4.71622C17.7093 4.42262 17.0657 4.592 16.7721 5.08887L16.6478 5.30343C16.0042 6.42138 15.0669 7.05376 14.0619 7.05376C13.0568 7.05376 12.1196 6.42138 11.4759 5.30343L11.3517 5.07758C11.0694 4.6033 10.437 4.43391 9.95141 4.71622L7.99781 5.84547C7.70421 6.01485 7.47836 6.29717 7.38802 6.63594C7.29768 6.97471 7.34285 7.32478 7.51224 7.61838C8.15591 8.72505 8.23495 9.86558 7.73809 10.7351C7.24122 11.6046 6.2136 12.1015 4.92626 12.1015C4.20355 12.1015 3.62763 12.6774 3.62763 13.4001V15.3876C3.62763 16.099 4.20355 16.6862 4.92626 16.6862C6.2136 16.6862 7.24122 17.1831 7.73809 18.0526C8.23495 18.9221 8.15591 20.0627 7.51224 21.1693C7.34285 21.4629 7.29768 21.813 7.38802 22.1518C7.47836 22.4906 7.69292 22.7616 7.98652 22.9423L9.94012 24.0602C10.1773 24.207 10.4596 24.2409 10.7193 24.1731C10.9903 24.1054 11.2162 23.9247 11.363 23.6876L11.4872 23.473C12.1309 22.3663 13.0681 21.7227 14.0732 21.7227Z" fill="#7B7B7B"/>
</svg>
