<svg width="29" height="29" viewBox="0 0 29 29" fill="none" xmlns="http://www.w3.org/2000/svg">
<path d="M21.9189 26.1243C20.8556 26.4385 19.5989 26.5835 18.1247 26.5835H10.8747C9.40058 26.5835 8.14392 26.4385 7.08058 26.1243C7.34642 22.9826 10.5727 20.5055 14.4997 20.5055C18.4268 20.5055 21.6531 22.9826 21.9189 26.1243Z" stroke="#292D32" stroke-width="1.5" stroke-linecap="round" stroke-linejoin="round"/>
<path d="M18.1247 2.41681H10.8747C4.83308 2.41681 2.41641 4.83348 2.41641 10.8751V18.1251C2.41641 22.6926 3.79391 25.1939 7.08058 26.1243C7.34641 22.9826 10.5727 20.5055 14.4997 20.5055C18.4268 20.5055 21.6531 22.9826 21.9189 26.1243C25.2056 25.1939 26.5831 22.6926 26.5831 18.1251V10.8751C26.5831 4.83348 24.1664 2.41681 18.1247 2.41681ZM14.4997 17.1222C12.1072 17.1222 10.1739 15.1768 10.1739 12.7843C10.1739 10.3918 12.1072 8.45848 14.4997 8.45848C16.8922 8.45848 18.8256 10.3918 18.8256 12.7843C18.8256 15.1768 16.8922 17.1222 14.4997 17.1222Z" stroke="#292D32" stroke-width="1.5" stroke-linecap="round" stroke-linejoin="round"/>
<path d="M18.8256 12.7844C18.8256 15.1769 16.8922 17.1222 14.4997 17.1222C12.1072 17.1222 10.1739 15.1769 10.1739 12.7844C10.1739 10.3919 12.1072 8.4585 14.4997 8.4585C16.8922 8.4585 18.8256 10.3919 18.8256 12.7844Z" stroke="#292D32" stroke-width="1.5" stroke-linecap="round" stroke-linejoin="round"/>
</svg>
